<?xml version="1.0" encoding="UTF-8" standalone="no"?>
<svg
   xmlns:dc="http://purl.org/dc/elements/1.1/"
   xmlns:cc="http://creativecommons.org/ns#"
   xmlns:rdf="http://www.w3.org/1999/02/22-rdf-syntax-ns#"
   xmlns:svg="http://www.w3.org/2000/svg"
   xmlns="http://www.w3.org/2000/svg"
   xmlns:sodipodi="http://sodipodi.sourceforge.net/DTD/sodipodi-0.dtd"
   xmlns:inkscape="http://www.inkscape.org/namespaces/inkscape"
   width="116.72982mm"
   height="116.72982mm"
   viewBox="0 0 116.72982 116.72982"
   version="1.1"
   id="svg8"
   inkscape:version="1.0.2 (e86c870879, 2021-01-15)"
   sodipodi:docname="crap_icon.svg">
  <defs
     id="defs2" />
  <sodipodi:namedview
     id="base"
     pagecolor="#ffffff"
     bordercolor="#666666"
     borderopacity="1.0"
     inkscape:pageopacity="0.0"
     inkscape:pageshadow="2"
     inkscape:zoom="0.35"
     inkscape:cx="269.39958"
     inkscape:cy="368.5939"
     inkscape:document-units="mm"
     inkscape:current-layer="layer1"
     inkscape:document-rotation="0"
     showgrid="false"
     inkscape:window-width="1514"
     inkscape:window-height="948"
     inkscape:window-x="50"
     inkscape:window-y="27"
     inkscape:window-maximized="0" />
  <metadata
     id="metadata5">
    <rdf:RDF>
      <cc:Work
         rdf:about="">
        <dc:format>image/svg+xml</dc:format>
        <dc:type
           rdf:resource="http://purl.org/dc/dcmitype/StillImage" />
        <dc:title></dc:title>
      </cc:Work>
    </rdf:RDF>
  </metadata>
  <g
     inkscape:groupmode="layer"
     id="layer3"
     inkscape:label="Layer 3"
     transform="translate(-34.554695,-50.642864)" />
  <g
     inkscape:label="Layer 1"
     inkscape:groupmode="layer"
     id="layer1"
     transform="translate(-34.554695,-50.642864)">
    <rect
       style="fill:#ffff00;stroke-width:0.218595"
       id="rect56"
       width="116.72982"
       height="116.72982"
       x="34.554695"
       y="50.642864" />
  </g>
  <g
     inkscape:groupmode="layer"
     id="layer2"
     inkscape:label="Layer 2"
     transform="translate(-34.554695,-50.642864)">
    <g
       id="g70">
      <path
         style="fill:#008000;fill-opacity:1;fill-rule:nonzero;stroke:none;stroke-width:0.264583"
         id="path34"
         d="m 39.148652,79.870974 c 2.473719,6.067062 4.476551,12.314316 7.012215,18.358289 1.941795,4.628437 3.826234,8.468517 5.979191,13.012437 4.106897,8.5162 7.555646,17.32817 11.622535,25.86199 2.244778,4.71036 2.732061,5.52522 5.128315,10.06788 2.670937,4.90586 5.846099,9.4931 9.046536,14.05925 0,0 9.249902,-5.46758 9.249902,-5.46758 v 0 C 83.876853,151.32448 80.57463,146.87529 77.875854,142.02353 71.59599,130.41472 66.12973,118.40247 60.864207,106.30359 58.64367,101.5129 57.010365,98.162752 55.057643,93.279649 52.607418,87.152452 50.709059,80.830094 48.844988,74.506793 c 0,0 -9.696336,5.364181 -9.696336,5.364181 z" />
      <path
         style="fill:#008000;fill-opacity:1;fill-rule:nonzero;stroke:none;stroke-width:0.264583"
         id="path36"
         d="m 85.261838,152.61106 c 0.152437,-1.18635 0.45503,-2.34597 0.647361,-3.52506 0.604547,-3.70617 1.049645,-7.43687 1.628862,-11.14708 1.406459,-9.00917 1.78094,-10.67195 3.505656,-20.08122 3.741433,-18.707105 8.380211,-37.221864 13.908473,-55.47842 0.84202,-2.849912 1.86684,-5.638472 2.84765,-8.441664 0,0 -9.97054,4.70988 -9.97054,4.70988 v 0 c -0.720833,2.718943 -1.490543,5.424519 -2.173176,8.15368 -4.671637,18.29612 -9.114658,36.649594 -13.003271,55.130434 -2.452589,11.89134 -4.717095,23.82535 -7.444361,35.65689 0,0 10.053346,-4.97744 10.053346,-4.97744 z" />
      <path
         style="fill:#008000;fill-opacity:1;fill-rule:nonzero;stroke:none;stroke-width:0.264583"
         id="path38"
         d="m 92.425918,125.50507 c -0.957593,7.48041 -1.98847,14.94336 -2.690378,22.45392 -0.414301,2.5697 -0.183264,5.23308 -0.608857,7.79969 0.117314,0.25768 0.04091,0.13844 0.04301,0.37237 0,0 10.056074,-5.1621 10.056074,-5.1621 v 0 c -0.0041,-0.0895 -0.143737,-0.70037 -0.01196,-0.33134 -0.08703,-0.47348 -0.0533,-1.06731 -0.05137,-1.52723 0.0083,-1.98896 0.09516,-3.97657 0.205052,-5.96222 0.507627,-7.57648 1.357121,-15.14005 3.094111,-22.54515 0,0 -10.035674,4.90206 -10.035674,4.90206 z" />
      <path
         style="fill:#008000;fill-opacity:1;fill-rule:nonzero;stroke:none;stroke-width:0.264583"
         id="path44"
         d="m 100.00233,121.4817 c 4.24962,-3.49064 8.77366,-6.6574 13.4317,-9.57886 1.28253,-0.80438 5.1482,-3.18517 3.89504,-2.33576 -1.88019,1.2744 -3.85203,2.40805 -5.77805,3.61208 1.4142,-0.45034 4.06691,-1.84136 5.40271,-0.21832 1.33035,1.61643 0.43338,4.74963 0.19136,6.44036 -2.79969,9.93511 -8.38007,18.81594 -14.98102,26.66578 -1.09965,1.30771 -2.286287,2.53973 -3.429432,3.8096 -2.039953,2.04316 -3.952677,4.31755 -6.309236,6.02632 -0.297825,0.21596 -1.27636,0.73231 -0.958074,0.54784 3.081054,-1.78573 6.162778,-3.57031 9.244162,-5.35546 -0.0181,-0.20703 -0.0361,-0.41406 -0.0542,-0.6211 0,0 -9.886579,5.24301 -9.886579,5.24301 v 0 c 0.07166,0.33633 0.143314,0.67266 0.214971,1.009 0.195694,0.31782 0.240533,1.09209 0.587082,0.95348 8.951696,-3.58052 11.193166,-5.52524 16.772066,-11.85795 7.87925,-9.24065 14.9326,-19.40837 18.45402,-31.16565 0.30866,-2.1072 0.79585,-3.74709 0.30643,-5.83952 -0.9386,-4.01283 -4.21019,-3.36168 -7.21014,-2.30009 -4.12941,2.28206 -8.28472,4.51785 -12.38822,6.84616 -6.30298,3.57629 -12.087713,8.00909 -17.93025,12.26908 0,0 10.42567,-4.15 10.42567,-4.15 z" />
      <path
         style="fill:#008000;fill-opacity:1;fill-rule:nonzero;stroke:none;stroke-width:0.264583"
         id="path46"
         d="m 127.76236,112.14214 c -0.0286,1.35425 -0.0376,2.70905 -0.0858,4.06275 -0.21933,6.16081 -0.30041,5.03679 -0.55631,11.4495 -0.24898,6.23908 -0.23545,12.4763 -0.24292,18.71884 -0.002,1.61321 -0.003,3.22643 -0.005,4.83965 0,0 9.328,-4.77195 9.328,-4.77195 v 0 c -0.0534,-1.58124 -0.10685,-3.16248 -0.16028,-4.74372 -0.1587,-11.52763 0.12472,-23.07318 1.59344,-34.52268 0,0 -9.87146,4.96761 -9.87146,4.96761 z" />
      <path
         style="fill:#008000;fill-opacity:1;fill-rule:nonzero;stroke:none;stroke-width:0.264583"
         id="path54"
         d="m 126.48134,128.39753 c 2.29108,-1.50486 4.28911,-3.3961 6.3939,-5.1397 1.60158,-1.28186 3.24248,-2.51088 4.88365,-3.73967 0.29539,-0.22117 1.22425,-0.8223 0.90385,-0.63923 -2.90224,1.65821 -5.76887,3.37796 -8.65331,5.06694 1.26272,-0.78452 2.68251,-1.03376 4.13003,-1.19831 4.85489,-1.07058 9.81699,-4.86767 13.53958,-7.00869 -15.59756,9.05702 -10.93298,5.94185 -7.36252,4.45251 0,0 8.82028,-6.89657 8.82028,-6.89657 v 0 c -4.34874,1.40335 -7.83219,3.89646 -11.90595,6.47193 2.97553,-1.70167 5.95107,-3.40335 8.92661,-5.10502 -0.21338,0.12088 -0.42067,0.2532 -0.64013,0.36265 -0.61652,0.30747 -1.28378,0.4063 -1.90686,0.68932 -0.17616,0.08 -0.33769,0.18893 -0.50653,0.2834 -1.46301,0.34675 -3.04131,0.19101 -4.42113,0.9257 -3.45954,2.02076 -6.93937,4.00715 -10.37861,6.06227 -2.0449,1.22193 -3.72067,3.06897 -5.67928,4.41212 -2.11964,1.78896 -4.20804,3.64878 -6.61965,5.04418 0,0 10.47607,-4.04383 10.47607,-4.04383 z" />
    </g>
  </g>
</svg>
