<?xml version="1.0" encoding="utf-8"?>
<!-- Generator: Adobe Illustrator 22.1.0, SVG Export Plug-In . SVG Version: 6.00 Build 0)  -->
<svg version="1.1"
	 id="svg2" inkscape:version="0.91 r13725" sodipodi:docname="novnc-icon-sm.svg" xmlns:cc="http://creativecommons.org/ns#" xmlns:dc="http://purl.org/dc/elements/1.1/" xmlns:inkscape="http://www.inkscape.org/namespaces/inkscape" xmlns:rdf="http://www.w3.org/1999/02/22-rdf-syntax-ns#" xmlns:sodipodi="http://sodipodi.sourceforge.net/DTD/sodipodi-0.dtd" xmlns:svg="http://www.w3.org/2000/svg"
	 xmlns="http://www.w3.org/2000/svg" xmlns:xlink="http://www.w3.org/1999/xlink" x="0px" y="0px" viewBox="0 0 16 16"
	 style="enable-background:new 0 0 16 16;" xml:space="preserve">
<style type="text/css">
	.st0{fill:#494949;}
	.st1{fill:#313131;}
	.st2{fill:#008000;}
	.st3{fill:#FFFF00;}
</style>
<sodipodi:namedview  bordercolor="#666666" borderopacity="1.0" id="base" inkscape:current-layer="layer1" inkscape:cx="9.722703" inkscape:cy="5.5311896" inkscape:document-units="px" inkscape:object-nodes="true" inkscape:pageopacity="0.0" inkscape:pageshadow="2" inkscape:snap-midpoints="true" inkscape:snap-smooth-nodes="true" inkscape:window-height="1136" inkscape:window-maximized="1" inkscape:window-width="1920" inkscape:window-x="1920" inkscape:window-y="27" inkscape:zoom="45.254834" pagecolor="#ffffff" showgrid="false" units="px">
	<inkscape:grid  id="grid4169" type="xygrid"></inkscape:grid>
</sodipodi:namedview>
<g id="layer1" transform="translate(0,-1036.3621)" inkscape:groupmode="layer" inkscape:label="Layer 1">
	<path id="rect4167" class="st0" d="M2.7,1036.4h10.7c1.5,0,2.7,1.2,2.7,2.7v10.7c0,1.5-1.2,2.7-2.7,2.7H2.7c-1.5,0-2.7-1.2-2.7-2.7
		V1039C0,1037.6,1.2,1036.4,2.7,1036.4z"/>
	<path id="rect4173" inkscape:connector-curvature="0" class="st1" d="M2.7,1036.4c-1.5,0-2.7,1.2-2.7,2.7v10.7
		c0,1.5,1.2,2.7,2.7,2.7h4c5.2,0,9.3-5.6,9.3-12.7v-0.7c0-1.5-1.2-2.7-2.7-2.7C13.3,1036.4,2.7,1036.4,2.7,1036.4z"/>
	<g id="g4381">
		<g id="g4365" transform="translate(0.25,0.25)">
			<g id="g4367">
				<path id="path4369" inkscape:connector-curvature="0" sodipodi:nodetypes="scsccsssscccs" d="M4.3,1039.4c0.2,0,0.3,0.1,0.5,0.2
					c0.1,0.1,0.2,0.3,0.2,0.5v3.3H4v-3c0,0,0,0,0,0H2c0,0,0,0,0,0v3H1v-4H4.3z"/>
				<path id="path4371" inkscape:connector-curvature="0" sodipodi:nodetypes="sscsscsscsscssssssssss" d="M6.7,1039.4h2.7
					c0.2,0,0.3,0.1,0.5,0.2c0.1,0.1,0.2,0.3,0.2,0.5v2.6c0,0.2-0.1,0.4-0.2,0.5c-0.1,0.1-0.3,0.2-0.5,0.2H6.7
					c-0.2,0-0.3-0.1-0.5-0.2c-0.1-0.1-0.2-0.3-0.2-0.5v-2.6c0-0.2,0.1-0.4,0.2-0.5C6.3,1039.4,6.5,1039.4,6.7,1039.4z M9,1040.4H7
					c0,0,0,0,0,0v1.9c0,0,0,0,0,0H9c0,0,0,0,0,0L9,1040.4C9,1040.4,9,1040.4,9,1040.4z"/>
			</g>
			<g id="g4373">
				<path id="path4375" inkscape:connector-curvature="0" sodipodi:nodetypes="cccccccc" d="M3,1047.1l1-2.8h1l-1.5,4h-1l-1.5-4h1
					L3,1047.1z"/>
				<path id="path4377" inkscape:connector-curvature="0" sodipodi:nodetypes="ccccccccccc" d="M9,1046.9v-2.5h1v4H9l-2-2.5v2.5H6
					v-4h1L9,1046.9z"/>
				<path id="path4379" inkscape:connector-curvature="0" sodipodi:nodetypes="cssssccscsscscc" d="M15,1045.4h-3c0,0,0,0,0,0v1.9
					c0,0,0,0,0,0h3v1h-3.3c-0.2,0-0.3-0.1-0.5-0.2c-0.1-0.1-0.2-0.3-0.2-0.5v-2.6c0-0.2,0.1-0.4,0.2-0.5c0.1-0.1,0.3-0.2,0.5-0.2H15
					V1045.4z"/>
			</g>
		</g>
		<g id="g4356">
			<g id="g4347">
				<path id="path4143" inkscape:connector-curvature="0" sodipodi:nodetypes="scsccsssscccs" class="st2" d="M4.3,1039.4
					c0.2,0,0.3,0.1,0.5,0.2c0.1,0.1,0.2,0.3,0.2,0.5v3.3H4v-3c0,0,0,0,0,0H2c0,0,0,0,0,0v3H1v-4L4.3,1039.4z"/>
				<path id="path4145" inkscape:connector-curvature="0" sodipodi:nodetypes="sscsscsscsscssssssssss" class="st2" d="M6.7,1039.4
					h2.7c0.2,0,0.3,0.1,0.5,0.2c0.1,0.1,0.2,0.3,0.2,0.5v2.6c0,0.2-0.1,0.4-0.2,0.5c-0.1,0.1-0.3,0.2-0.5,0.2H6.7
					c-0.2,0-0.3-0.1-0.5-0.2c-0.1-0.1-0.2-0.3-0.2-0.5v-2.6c0-0.2,0.1-0.4,0.2-0.5C6.3,1039.4,6.5,1039.4,6.7,1039.4z M9,1040.4H7
					c0,0,0,0,0,0v1.9c0,0,0,0,0,0H9c0,0,0,0,0,0L9,1040.4C9,1040.4,9,1040.4,9,1040.4z"/>
			</g>
			<g id="g4351">
				<path id="path4147" inkscape:connector-curvature="0" sodipodi:nodetypes="cccccccc" class="st3" d="M3,1047.1l1-2.8h1l-1.5,4
					h-1l-1.5-4h1L3,1047.1z"/>
				<path id="path4149" inkscape:connector-curvature="0" sodipodi:nodetypes="ccccccccccc" class="st3" d="M9,1046.9v-2.5h1v4H9
					l-2-2.5v2.5H6v-4h1L9,1046.9z"/>
				<path id="path4151" inkscape:connector-curvature="0" sodipodi:nodetypes="cssssccscsscscc" class="st3" d="M15,1045.4h-3
					c0,0,0,0,0,0v1.9c0,0,0,0,0,0h3v1h-3.3c-0.2,0-0.3-0.1-0.5-0.2c-0.1-0.1-0.2-0.3-0.2-0.5v-2.6c0-0.2,0.1-0.4,0.2-0.5
					c0.1-0.1,0.3-0.2,0.5-0.2H15V1045.4z"/>
			</g>
		</g>
	</g>
</g>
<image style="overflow:visible;" width="128" height="128" xlink:href="9bc4519858ce0a72.png"  transform="matrix(0.1313 0 0 0.1313 0 -0.4034)">
</image>
</svg>
